<svg width="20" height="20" viewBox="0 0 20 20" fill="none" xmlns="http://www.w3.org/2000/svg">
<path fill-rule="evenodd" clip-rule="evenodd" d="M10 2.5C8.67393 2.5 7.40216 3.02679 6.46448 3.96447C5.52679 4.90215 5.00001 6.17392 5.00001 7.5V11.6667C5.00001 12.2569 4.84349 12.8309 4.55344 13.3333H15.4466C15.1565 12.8309 15 12.2569 15 11.6667V7.5C15 6.17392 14.4732 4.90215 13.5355 3.96447C12.5979 3.02679 11.3261 2.5 10 2.5ZM18.3333 13.3333C17.8913 13.3333 17.4674 13.1577 17.1548 12.8452C16.8423 12.5326 16.6667 12.1087 16.6667 11.6667V7.5C16.6667 5.73189 15.9643 4.0362 14.7141 2.78596C13.4638 1.53571 11.7681 0.833336 10 0.833336C8.2319 0.833336 6.53621 1.53571 5.28596 2.78596C4.03572 4.0362 3.33334 5.73189 3.33334 7.5V11.6667C3.33334 12.1087 3.15775 12.5326 2.84519 12.8452C2.53263 13.1577 2.1087 13.3333 1.66668 13.3333C1.20644 13.3333 0.833344 13.7064 0.833344 14.1667C0.833344 14.6269 1.20644 15 1.66668 15H18.3333V13.3333ZM8.1402 16.7792C8.53831 16.5482 9.04824 16.6838 9.27918 17.0819C9.35243 17.2081 9.45758 17.313 9.58408 17.3858C9.71059 17.4587 9.85402 17.497 10 17.497C10.146 17.497 10.2894 17.4587 10.4159 17.3858C10.5424 17.313 10.6476 17.2081 10.7208 17.0819C10.9518 16.6838 11.4617 16.5482 11.8598 16.7792C12.2579 17.0101 12.3934 17.52 12.1625 17.9181C11.9427 18.297 11.6273 18.6115 11.2478 18.8301C10.8683 19.0487 10.438 19.1637 10 19.1637C9.56204 19.1637 9.13175 19.0487 8.75223 18.8301C8.37271 18.6115 8.05727 18.297 7.83751 17.9181C7.60658 17.52 7.74209 17.0101 8.1402 16.7792Z" fill="#5533EA"/>
</svg>
